<?xml version="1.0" encoding="iso-8859-1"?>
<!-- Generator: Adobe Illustrator 18.1.0, SVG Export Plug-In . SVG Version: 6.00 Build 0)  -->
<svg version="1.1" id="Layer_1" xmlns="http://www.w3.org/2000/svg" xmlns:xlink="http://www.w3.org/1999/xlink" x="0px" y="0px"
	 viewBox="90.205 215.359 401.282 448.718" style="enable-background:new 90.205 215.359 401.282 448.718;" xml:space="preserve">
<g>
	<path d="M356.828,515.093c0.404-4.106,0.826-8.366,1.597-12.411c1.536-8.152,2.02-15.998,1.444-23.348
		c-0.587-7.491-2.436-11.334-11.328-12.913l-0.539-0.098c-25.765-4.59-52.406-9.339-78.195-15.869
		c-6.206-1.573-12.595-2.393-18.77-3.195c-4.315-0.557-8.776-1.132-13.072-1.952c-4.1-0.783-8.25-1.799-12.271-2.785
		c-6.126-1.499-12.46-3.054-18.917-3.874c-4.804-0.606-9.688-1.597-14.406-2.546c-7.136-1.444-14.517-2.938-22.05-3.231
		c-4.786-0.196-8.727,1.126-11.267,3.807c-1.708,1.799-3.629,5.135-3.103,10.796c0.643,6.867-0.936,13.28-2.601,20.067l-0.728,2.962
		c-0.19,0.796-0.018,1.591,0.41,2.215c-0.587,4.021-1.132,8.048-1.683,12.075c-1.365,10.012-2.772,20.367-4.731,30.404
		c-1.2,6.138-1.916,12.381-2.601,18.415c-0.649,5.673-1.322,11.536-2.387,17.203c-1.151,6.138,0.343,11.848,1.793,17.375
		l0.171,0.655c1.634,6.248,6.475,10.061,13.996,11.01c23.923,2.999,47.485,7.246,70.276,11.346l9.468,1.689
		c17.95,3.182,36.518,6.475,54.407,11.377c11.597,3.182,23.489,4.682,34.664,5.949c1.916,0.214,3.592,0.361,5.061,0.361
		c5.961,0,8.739-2.368,10.992-12.02c0.851-3.617,1.028-7.203,1.212-10.673c0.178-3.495,0.349-6.793,1.151-10.031
		c1.61-6.481,2.717-13.115,3.776-19.529c1.334-8.066,2.717-16.408,5.116-24.352C355.574,527.786,356.21,521.329,356.828,515.093z
		 M351.265,514.548c-0.618,6.248-1.2,12.148-2.907,17.797c-2.497,8.293-3.911,16.812-5.275,25.049
		c-1.04,6.31-2.13,12.84-3.678,19.101c-0.936,3.758-1.126,7.491-1.31,11.095c-0.171,3.372-0.343,6.561-1.065,9.688
		c-1.94,8.28-2.087,8.268-9.988,7.375c-10.967-1.23-22.607-2.705-33.813-5.777c-18.134-4.976-36.836-8.286-54.915-11.487
		l-9.449-1.689c-22.864-4.113-46.5-8.372-70.57-11.389c-5.214-0.655-8.25-2.907-9.29-6.879l-0.171-0.661
		c-1.352-5.147-2.632-10.012-1.708-14.915c1.108-5.869,1.787-11.83,2.442-17.607c0.673-5.924,1.377-12.056,2.534-17.981
		c1.989-10.19,3.415-20.63,4.786-30.722c0.606-4.449,1.212-8.911,1.867-13.348c0.098-0.655-0.043-1.285-0.349-1.811l0.373-1.524
		c1.708-6.934,3.47-14.113,2.736-21.916c-0.269-2.864,0.269-5.025,1.597-6.426c1.775-1.867,4.798-2.148,6.989-2.075
		c5.41,0.214,10.851,1.108,16.206,2.142c-0.532,0.184-0.998,0.557-1.267,1.089c-2.283,4.51-5.918,7.858-9.767,11.414
		c-2.552,2.35-5.196,4.786-7.442,7.613c-0.441,0.551-0.985,1.01-1.524,1.475c-1.193,1.028-2.668,2.307-3.378,4.364
		c-0.398,1.169,0.22,2.442,1.389,2.84c0.239,0.086,0.483,0.122,0.728,0.122c0.93,0,1.793-0.588,2.111-1.512
		c0.312-0.906,1.126-1.61,2.069-2.423c0.753-0.655,1.493-1.304,2.105-2.075c2.038-2.552,4.431-4.767,6.977-7.105
		c3.972-3.666,8.078-7.454,10.728-12.681c0.477-0.942,0.184-2.038-0.587-2.693c0.943,0.19,1.891,0.373,2.821,0.563
		c4.816,0.973,9.804,1.983,14.81,2.613c6.144,0.777,12.32,2.289,18.293,3.752c4.082,1.004,8.311,2.038,12.546,2.846
		c4.468,0.851,9.015,1.438,13.409,2.007c6.022,0.777,12.24,1.585,18.121,3.066c25.986,6.585,52.724,11.353,78.581,15.961
		l0.545,0.098c5.747,1.022,6.285,2.124,6.738,7.84c0.539,6.861,0.08,14.217-1.371,21.873
		C352.11,505.937,351.681,510.313,351.265,514.548z"/>
	<path d="M461.676,428.091c-0.667-4.327-3.752-10.049-14.645-12.766c-8.947-2.228-17.858-4.584-26.775-6.934
		c-11.567-3.054-23.531-6.212-35.386-9.033c-6.389-1.524-12.809-3.433-19.015-5.288c-4.602-1.371-9.198-2.736-13.837-3.978
		c-3.231-0.863-6.328-1.585-8.593-0.893c-3.831,1.163-7.907,1.879-11.848,2.576c-1.518,0.269-3.054,0.551-4.602,0.851
		c3.146-5.306,6.885-10.337,10.551-15.208c2.46-3.28,4.927-6.555,7.228-9.933c2.368-3.47,4.755-6.934,7.13-10.392
		c6.836-9.927,13.898-20.196,20.545-30.533c1.218-1.903,2.289-3.929,3.354-5.955c2.944-5.581,5.728-10.857,11.965-13.28
		c1.769-0.685,3.023-2.209,3.439-4.192c0.569-2.638-0.422-5.783-2.442-7.827c-1.995-2.014-3.978-2.405-5.379-2.35
		c-1.444,0.043-3.611,0.606-5.759,3.036c-4.113,4.657-1.187,8.452,0.392,10.484c0.104,0.141,0.22,0.275,0.324,0.416
		c-3.366,3.293-5.502,7.356-7.472,11.108c-0.998,1.885-1.983,3.77-3.121,5.539c-6.603,10.263-13.641,20.496-20.447,30.386
		c-2.387,3.47-4.78,6.934-7.148,10.41c-2.258,3.305-4.67,6.518-7.081,9.731c-4.749,6.322-9.657,12.846-13.378,20.165
		c-0.024,0.049-0.024,0.104-0.043,0.159c-0.796,0.233-1.585,0.453-2.368,0.728c-2.687,0.906-4.48,2.289-5.428,4.088
		c-4.957,0.306-9.767-1.126-15.239-3.244c0.098-24.933-5.734-49.217-11.389-72.73c-2.271-9.449-4.614-19.205-6.548-28.886
		c0.251-0.324,0.557-0.661,0.863-1.016c1.444-1.628,3.421-3.868,3.403-7.491c0-0.722-0.288-1.414-0.789-1.934
		c-0.361-0.373-0.673-0.832-0.998-1.285c-1.242-1.75-3.323-4.67-7.668-4.364c-0.649,0.043-1.255,0.318-1.726,0.759
		c-3.213,3.06-6.096,6.389-5.379,10.012c0.606,3.084,3.605,4.951,6.799,6.322c1.952,9.816,4.321,19.657,6.61,29.186
		c5.477,22.797,11.077,46.347,11.169,70.196c-0.141,0-0.294,0-0.373-0.024c-10.171-2.717-20.643-4.345-30.778-5.918
		c-5.906-0.918-12.007-1.867-17.95-3.017c-0.961-0.184-1.934-0.392-2.913-0.606c-6.359-1.359-13.562-2.907-20.245,0.924
		c-14.768,8.439-28.66,15.575-42.479,21.812l-1.597,0.734c-5.502,2.528-9.835,4.529-15.796,2.124
		c-5.741-2.319-13.807-2.277-17.803,5.869c-1.897,3.862-4.051,8.238-3.342,13.531c0.618,4.614-0.116,9.186-0.887,14.033
		c-0.386,2.442-0.777,4.871-1.004,7.332c-0.679,7.57-2.215,15.214-3.697,22.613c-1.732,8.629-3.519,17.564-4.033,26.622
		c-0.294,5.269-1.157,10.637-1.989,15.814c-1.236,7.717-2.515,15.71-2.087,23.935c0.838,15.992-1.536,31.897-3.697,43.966
		c-1.463,8.158,3.078,14.627,11.297,16.126c11.989,2.173,27.705,5.312,42.92,10.343c24.853,8.213,50.227,13.458,74.077,18.127
		l10.416,2.026c20.79,4.039,42.289,8.213,63.152,13.495c5.796,1.463,11.12,2.197,16.151,2.197c8.225,0,15.643-1.983,22.938-6.01
		c14.474-7.993,29.927-14.908,44.872-21.591c5.202-2.332,10.398-4.657,15.575-7.032l0.471-0.22c2.987-1.359,7.087-3.231,7.442-8.035
		c0.128-1.756,0.361-3.507,0.587-5.257c0.3-2.319,0.612-4.719,0.692-7.124c0.086-2.503,0.233-5.006,0.343-7.503
		c5.012-2.209,9.051-5.588,12.944-8.892c1.457-1.236,2.913-2.472,4.419-3.641c4.125-3.188,6.493-8.378,7.032-15.404
		c1.585-20.551,3.488-47.669,4.137-75.154c0.129-5.514,0.863-11.212,1.591-16.72c0.551-4.21,1.114-8.562,1.426-12.895
		C463.273,443.862,462.912,436.053,461.676,428.091z M381.816,299.681c0.637-0.716,1.261-1.132,1.726-1.145c0.006,0,0.018,0,0.024,0
		c0.441,0,0.9,0.373,1.224,0.698c0.998,1.004,1.132,2.576,0.955,2.876c-1.059,0.41-2.038,0.881-2.95,1.402
		c-0.116-0.153-0.239-0.306-0.343-0.453C380.751,300.881,380.855,300.764,381.816,299.681z M275.346,289.614
		c-0.116,0.135-0.245,0.269-0.361,0.41c-2.944-1.334-3.127-2.087-3.127-2.099c-0.006-0.043-0.147-0.973,2.882-4.033
		c0.563,0.202,1.01,0.759,1.854,1.94c0.22,0.306,0.428,0.606,0.655,0.9C277.005,287.704,276.338,288.488,275.346,289.614z
		 M323.499,639.164c-21.01-5.318-42.589-9.51-63.452-13.562l-10.41-2.026c-23.678-4.633-48.85-9.835-73.397-17.95
		c-15.545-5.141-31.512-8.329-43.678-10.539c-5.165-0.936-7.705-4.535-6.793-9.633c2.215-12.368,4.645-28.69,3.776-45.245
		c-0.392-7.638,0.777-14.982,2.026-22.76c0.851-5.331,1.738-10.839,2.05-16.395c0.49-8.666,2.24-17.399,3.929-25.839
		c1.512-7.54,3.078-15.337,3.788-23.213c0.208-2.332,0.581-4.633,0.955-6.946c0.808-5.031,1.634-10.233,0.912-15.661
		c-0.483-3.611,1.04-6.72,2.999-10.692c2.595-5.3,8.213-3.715,10.52-2.785c4.59,1.848,8.507,1.756,12.124,0.857
		c0.196,0.208,0.404,0.41,0.673,0.563c6.322,3.44,13.103,3.905,19.664,4.345l2.821,0.202c6.438,0.502,12.877,1.714,19.113,2.883
		c3.464,0.655,6.922,1.297,10.41,1.842c17.344,2.699,35.312,6.408,53.397,11.022c6.059,1.548,12.252,2.417,18.244,3.262
		c2.84,0.398,5.679,0.796,8.507,1.267c10.808,1.793,21.726,4.076,32.289,6.285l7.044,1.469c1.909,0.392,3.819,0.759,5.734,1.12
		c6.897,1.304,13.391,2.54,19.59,5.208c6.34,2.736,11.708,5.502,13.109,11.659c0.955,4.198,1.175,8.635,0.618,12.509
		c-2.246,15.404-4.351,28.134-6.64,40.049c-0.716,3.745-1.457,7.485-2.185,11.23c-2.521,12.797-5.129,26.028-6.928,39.26
		c-1.248,9.198-3.158,18.544-4.994,27.589c-1.236,6.089-2.479,12.179-3.543,18.287c-0.373,2.13-0.863,4.247-1.365,6.359
		c-1.151,4.945-2.295,10.061-2.038,15.484C343.768,641.875,334.784,642.016,323.499,639.164z M425.268,591.33
		c-0.073,2.142-0.349,4.302-0.655,6.591c-0.239,1.848-0.483,3.709-0.612,5.569c-0.098,1.353-1.352,2.062-4.186,3.354l-0.483,0.22
		c-5.153,2.368-10.343,4.688-15.526,7.013c-15.049,6.732-30.606,13.697-45.288,21.8c-0.196,0.11-0.392,0.19-0.594,0.288
		c0.135-3.874,0.985-7.705,1.922-11.714c0.514-2.215,1.034-4.437,1.42-6.671c1.059-6.059,2.289-12.093,3.519-18.134
		c1.86-9.137,3.782-18.574,5.055-27.95c1.781-13.066,4.364-26.212,6.879-38.929c0.734-3.752,1.475-7.503,2.197-11.255
		c2.301-12.001,4.419-24.804,6.677-40.294c0.661-4.535,0.41-9.706-0.692-14.553c-2.148-9.431-10.692-13.121-16.347-15.557
		c-6.757-2.913-13.874-4.26-20.765-5.569c-1.879-0.361-3.764-0.716-5.637-1.102l-7.038-1.469
		c-10.624-2.215-21.604-4.517-32.522-6.328c-2.876-0.477-5.759-0.881-8.648-1.285c-5.845-0.82-11.885-1.671-17.65-3.14
		c-18.262-4.657-36.402-8.403-53.917-11.132c-3.433-0.532-6.83-1.175-10.239-1.811c-6.377-1.2-12.974-2.436-19.706-2.962
		l-2.876-0.202c-4.535-0.306-9.186-0.643-13.464-2.038c0.282-0.128,0.569-0.257,0.851-0.385l1.554-0.71
		c13.978-6.31,28.036-13.525,42.956-22.056c4.835-2.766,10.404-1.573,16.304-0.306c1.016,0.22,2.02,0.428,3.023,0.624
		c6.04,1.169,12.197,2.124,18.158,3.054c9.982,1.548,19.945,3.158,29.823,5.796c1.132,0.3,2.723,0.226,2.723,0.171v9.596
		c0-0.031,0.086-0.08-0.098-0.129c-1.053-0.306-2.454-0.783-4.217,0.043c-1.395,0.655-2.056,2.362-1.401,3.758
		c0.655,1.389,2.203,2.032,3.611,1.371c0.122,0.006,0.502,0.116,0.759,0.19c0.637,0.19,1.542,0.453,2.57,0.453
		c1.242,0,1.805-0.38,3.28-1.726c0.581-0.532,0.024-1.285,0.024-2.069v-9.413c4.535,1.512,9.241,2.552,13.544,2.552
		c0.22,0,0.887-0.031,1.102-0.037c-0.282,0.936-1.389,2.717-2.179,3.758c-0.814,1.065-1.493,2.118-2.087,3.109
		c-0.569,0.973-0.459,2.191,0.22,3.091c2.277,3.066,5.196,2.913,6.591,2.864c1.542-0.073,2.748-1.891,2.687-3.433
		c-0.067-1.499-1.285-3.182-2.778-3.182c-0.006,0-0.018,0-0.031,0c0.024,0,0.043,0.453,0.073,0.428
		c1.126-1.481,2.332-2.821,3.042-4.504c4.272,1.444,8.648,2.228,12.895,2.809c2.479,0.343,4.951,0.741,7.387,1.249
		c6.934,1.444,13.88,3.488,20.606,5.422c6.31,1.824,12.834,3.715,19.468,5.184c15.539,3.421,31.604,6.971,46.904,12.05
		c3.513,1.163,6.597,3.231,9.865,5.41c1.034,0.692,2.062,1.383,3.115,2.05c1.322,0.838,1.567,1.86,1.916,4.547l0.171,1.267
		c2.546,16.83-0.428,32.803-3.592,49.719c-0.961,5.141-1.922,10.288-2.723,15.453c-0.447,2.938-0.936,5.881-1.42,8.819
		c-1.689,10.22-3.439,20.79-3.782,31.555c-0.208,6.671-0.551,13.335-0.887,20.012C425.794,578.802,425.476,585.063,425.268,591.33z
		 M457.159,450.9c-0.3,4.174-0.851,8.439-1.395,12.564c-0.734,5.661-1.499,11.506-1.634,17.314
		c-0.643,27.356-2.54,54.37-4.119,74.86c-0.41,5.386-2.05,9.223-4.878,11.42c-1.567,1.218-3.097,2.509-4.621,3.801
		c-2.98,2.534-5.851,4.945-9.033,6.775c0.08-1.597,0.135-3.201,0.22-4.804c0.343-6.708,0.679-13.427,0.893-20.129
		c0.324-10.392,2.044-20.777,3.697-30.82c0.49-2.962,0.979-5.918,1.438-8.874c0.783-5.116,1.738-10.202,2.687-15.288
		c3.115-16.622,6.322-33.819,3.629-51.579l-0.159-1.157c-0.361-2.772-0.814-6.23-4.461-8.537c-1.01-0.637-2.001-1.304-2.999-1.971
		c-3.433-2.295-6.977-4.663-11.206-6.071c-15.588-5.171-31.799-8.739-47.516-12.209c-6.408-1.414-12.846-3.268-19.07-5.061
		c-6.83-1.971-13.88-4.002-21.01-5.496c-2.564-0.533-5.171-0.894-7.772-1.249c-4.553-0.624-8.85-1.249-12.925-2.791
		c0.361-0.496,1.083-0.845,2.356-1.273c4.235-1.45,8.617-2.228,13.268-3.042c4.1-0.722,8.348-1.469,12.503-2.73
		c0.967-0.275,4.394,0.649,5.52,0.949c4.59,1.224,9.137,2.576,13.684,3.929c6.279,1.873,12.772,3.807,19.315,5.367
		c11.787,2.809,23.721,5.955,35.257,9.003c8.941,2.356,17.877,4.719,26.848,6.952c4.37,1.089,9.737,3.403,10.484,8.201
		C457.331,436.494,457.667,443.881,457.159,450.9z"/>
	<path d="M249.985,459.474c-11.218,5.973-19.89,14.982-27.822,23.703l-1.622,1.781c-8.317,9.162-16.928,18.629-26.108,27.093
		c-3.47,3.201-6.799,6.616-10.025,9.921c-6.671,6.861-13.58,13.947-21.818,19.125c-1.206,0.759-1.787,2.001-2.252,2.999
		c-0.147,0.312-0.288,0.624-0.459,0.9c-0.637,1.059-0.288,2.436,0.759,3.072c0.361,0.214,0.759,0.318,1.151,0.318
		c0.759,0,1.499-0.385,1.916-1.083c0.245-0.404,0.465-0.863,0.673-1.322c0.184-0.392,0.465-0.985,0.581-1.108
		c8.69-5.465,15.783-12.748,22.644-19.786c3.182-3.268,6.475-6.653,9.853-9.768c9.327-8.592,17.999-18.14,26.383-27.363l1.628-1.793
		c7.662-8.421,16.028-17.118,26.61-22.76c1.095-0.588,1.506-1.934,0.924-3.029C252.427,459.303,251.074,458.893,249.985,459.474z"/>
	<path d="M183.473,491.494c-5.539,5.428-11.604,11.132-18.421,16.041c-2.803,2.02-4.082,4.933-3.507,7.993
		c0.202,1.071,1.138,1.824,2.197,1.824c0.135,0,0.269-0.012,0.41-0.043c1.218-0.226,2.013-1.395,1.793-2.607
		c-0.251-1.34,0.33-2.534,1.732-3.544c7.056-5.08,13.262-10.918,18.929-16.469c5.973-5.863,12.509-11.377,18.825-16.708
		c8.856-7.473,18.017-15.202,25.943-24.113c0.82-0.918,0.734-2.332-0.19-3.158c-0.924-0.814-2.332-0.734-3.158,0.19
		c-7.705,8.672-16.744,16.298-25.484,23.666C196.166,479.958,189.562,485.521,183.473,491.494z"/>
	<path d="M161.796,487.608c0.692,0,1.371-0.318,1.805-0.918c2.387-3.274,5.728-5.477,9.26-7.815
		c2.736-1.799,5.563-3.672,8.011-6.114c3.519-3.495,7.362-6.824,11.077-10.037c5.275-4.566,10.728-9.278,15.49-14.676
		c0.814-0.93,0.728-2.338-0.196-3.158c-0.918-0.814-2.338-0.728-3.158,0.202c-4.559,5.171-9.902,9.786-15.061,14.247
		c-3.782,3.268-7.687,6.646-11.316,10.257c-2.13,2.124-4.651,3.788-7.32,5.551c-3.715,2.448-7.552,4.982-10.41,8.905
		c-0.728,1.004-0.508,2.399,0.49,3.121C160.878,487.467,161.337,487.608,161.796,487.608z"/>
	<path d="M375.353,283.824c1.548,0,2.264-1.249,2.264-2.797v-9.26l7.179-2.479c1.138-0.392,1.885-1.469,1.885-2.668v-1.475
		c0-4.449,0.171-9.492-2.876-14.1c-0.851-1.291-2.491-1.652-3.788-0.796c-1.285,0.851-1.597,2.583-0.741,3.874
		c2.038,3.084,2.136,6.708,2.142,10.539l-6.812,2.479c-1.126,0.392-1.53,1.45-1.53,2.644v11.249
		C373.089,282.576,373.811,283.824,375.353,283.824z"/>
	<path d="M312.446,618.662c-3.556-0.869-7.289,0.796-8.501,3.849c-1.132,2.864-0.747,6.952,3.06,9.345
		c0.581,0.392,1.45,0.985,2.699,0.985c0.514,0,1.04-0.104,1.561-0.306c1.708-0.661,5.692-2.209,5.471-6.542
		c-0.055-0.392-0.067-0.814-0.086-1.23C316.577,622.854,316.455,619.671,312.446,618.662z M310.035,629.408
		c-0.428,0.159-0.606,0.043-1.151-0.33c-0.018-0.006-0.349-0.239-0.367-0.245c-1.909-1.2-2.087-3.482-1.45-5.092
		c0.477-1.2,1.805-1.971,3.384-1.971c0.398,0,0.796,0.043,1.187,0.141c1.493,0.38,1.597,1.016,1.671,2.962
		c0.024,0.532,0.043,1.059,0.098,1.414C313.462,627.591,312.55,628.429,310.035,629.408z"/>
	<path d="M390.611,317.203c1.285,10.814,2.368,12.283,11.995,14.192c0.202,0.618,0.416,1.23,0.637,1.842
		c1.444,4.064,2.246,6.708,0.545,9.816c-0.741,1.353-0.239,3.054,1.114,3.788c0.428,0.233,0.881,0.343,1.334,0.343
		c0.991,0,1.952-0.526,2.46-1.457c2.98-5.465,1.23-10.404-0.19-14.37c-0.373-1.04-0.741-2.075-1.022-3.121
		c-0.282-1.04-1.126-1.824-2.179-2.02c-8.207-1.548-8.207-1.548-9.241-10.588c-0.141-1.304-1.053-2.038-1.475-2.368
		c-1.095-1.034-2.809-1.022-3.886,0.043C389.613,314.381,389.589,316.101,390.611,317.203z"/>
	<path d="M327.134,620.614c-0.092-0.012-0.422-0.031-0.508-0.031c-3.268,0-5.765,2.925-6.383,7.577
		c-0.098,1.934,0.465,3.592,1.616,4.816c1.279,1.34,3.244,2.081,5.539,2.081c0.447,0,0.9-0.024,1.53-0.11
		c5-1.12,5.165-4.211,5.275-6.567C334.447,623.962,332.134,621.422,327.134,620.614z M330.861,628.307
		c-0.11,2.099-0.147,2.803-2.491,3.341c-0.324,0.043-0.643,0.061-0.961,0.061c-1.371,0-2.473-0.367-3.109-1.041
		c-0.514-0.545-0.747-1.328-0.71-2.197c0.361-2.711,1.585-4.529,3.017-4.541C330.322,624.531,330.983,625.944,330.861,628.307z"/>
	<path d="M238.975,272.68c0.985,0.19,1.983,0.38,2.962,0.606c-0.128,2.038-0.918,4.186-1.812,6.585
		c-0.282,0.759-0.569,1.53-0.832,2.301c-0.483,1.408,0.22,2.95,1.603,3.507l14.278,5.704c0.343,0.135,0.692,0.202,1.04,0.202
		c1.108,0,2.16-0.661,2.595-1.756c0.575-1.432-0.122-3.06-1.554-3.629l-11.757-4.7c1.267-3.421,2.509-6.971,1.891-10.857
		c-0.171-1.077-0.955-1.952-2.001-2.246c-1.756-0.496-3.556-0.851-5.343-1.193c-4.578-0.887-8.531-1.652-11.524-4.884
		c-1.047-1.132-2.821-1.193-3.947-0.147c-1.132,1.053-1.2,2.821-0.147,3.947C228.651,270.679,234.134,271.743,238.975,272.68z"/>
	<path d="M400.421,292.876c0.539,0,1.077-0.153,1.567-0.477c1.72-1.163,3.794-1.842,5.985-2.576
		c2.521-0.832,5.294-1.756,7.779-3.544l5.135,4.413c0.587,0.508,1.371,0.734,2.136,0.661c0.765-0.092,1.469-0.49,1.934-1.12
		c1.077-1.469,2.662-2.595,4.321-3.788c2.326-1.671,4.963-3.556,6.603-6.714c0.71-1.371,0.178-3.054-1.2-3.77
		c-1.371-0.71-3.054-0.177-3.77,1.193c-1.028,1.971-2.821,3.262-4.896,4.749c-1.2,0.857-2.417,1.732-3.55,2.785l-4.89-4.204
		c-1.114-0.961-2.791-0.887-3.825,0.171c-1.965,2.014-4.67,2.913-7.54,3.862c-2.454,0.814-5,1.652-7.356,3.244
		c-1.279,0.863-1.616,2.601-0.753,3.88C398.64,292.441,399.521,292.876,400.421,292.876z"/>
	<path d="M266.093,267.961c-0.789,1.328-0.355,3.042,0.973,3.831c0.447,0.269,0.943,0.392,1.426,0.392
		c0.955,0,1.879-0.484,2.405-1.365c2.124-3.574,1.383-7.081,0.783-9.902c-0.08-0.38-0.165-0.759-0.233-1.126
		c0.171-0.049,0.343-0.098,0.514-0.147c3.311-0.924,6.744-1.885,9.712-4.198c0.184-0.141,0.343-0.306,0.483-0.484
		c1.83-2.344,1.799-4.994,1.781-7.118c-0.024-2.368,0.061-3.262,1.083-4.021c1.242-0.918,1.512-2.668,0.587-3.911
		c-0.918-1.242-2.668-1.506-3.911-0.588c-3.415,2.521-3.378,6.022-3.354,8.574c0.018,1.573,0,2.632-0.428,3.384
		c-2.05,1.475-4.676,2.203-7.454,2.98c-0.973,0.269-1.952,0.545-2.919,0.851c-1.193,0.373-1.989,1.499-1.952,2.748
		c0.043,1.487,0.337,2.876,0.618,4.217C266.772,264.675,267.054,266.352,266.093,267.961z"/>
	<path d="M285.818,279.552c0.453,0.269,0.943,0.392,1.432,0.392c0.949,0,1.879-0.484,2.399-1.359
		c1.708-2.858,3.647-6.102,4.553-6.45c0.594-0.245,3.415,1.279,5.269,2.283c0.893,0.484,1.983,0.441,2.846-0.11
		c3.574-2.319,6.689-5.398,9.235-9.162c0.863-1.279,0.532-3.017-0.741-3.88c-1.285-0.869-3.017-0.526-3.88,0.747
		c-1.83,2.705-3.911,4.908-6.328,6.695c-8.182-4.137-10.116-2.393-15.747,7.02C284.055,277.043,284.49,278.757,285.818,279.552z"/>
	<path d="M291.014,614.506c-4.296,2.209-5.11,5.979-4.431,8.77c0.875,3.629,4.1,6.157,7.834,6.157l0,0
		c0.496,0,1.01-0.043,1.634-0.165c2.84-0.679,4.419-3.923,3.923-8.066C299.453,616.783,296.393,612.181,291.014,614.506z
		 M295.359,625.987c-3.005,0.532-5.055-1.567-5.52-3.501c-0.233-0.967-0.435-3.378,2.601-4.945c0.435-0.19,0.845-0.281,1.206-0.281
		c1.628,0,2.742,2.179,2.999,4.333C296.901,623.784,296.283,625.761,295.359,625.987z"/>
</g>
<path d="M-856-244"/>
</svg>
